<svg width="67" height="63" viewBox="0 0 67 63" fill="none" xmlns="http://www.w3.org/2000/svg">
<path d="M25.8439 18.8572V37.7144L40.6153 46.8287L43.1296 43.0572L30.5582 35.5144V18.8572H25.8439Z" fill="#00637A"/>
<path d="M50.7357 31.4289C51.2094 34.5527 51.0005 37.742 50.1234 40.7774C49.2462 43.8127 47.7217 46.6219 45.6547 49.0115C43.5877 51.4011 41.0274 53.3143 38.15 54.6194C35.2726 55.9246 32.1466 56.5906 28.9871 56.5717C16.73 56.5717 6.98713 46.8289 6.98713 34.5717C6.98713 22.3146 16.73 12.5717 28.9871 12.5717C31.1871 12.5717 33.2928 12.886 35.2728 13.4832V7.00887C33.2614 6.53744 31.1557 6.28601 28.9871 6.28601C13.2728 6.28601 0.701416 18.8574 0.701416 34.5717C0.701416 50.286 13.2728 62.8574 28.9871 62.8574C32.9713 62.874 36.9136 62.0452 40.5538 60.4257C44.194 58.8063 47.4493 56.4331 50.1048 53.4629C52.7602 50.4926 54.7553 46.9929 55.9584 43.1947C57.1615 39.3965 57.5453 35.3863 57.0843 31.4289H50.7357Z" fill="#00637A"/>
<path d="M57.2733 9.42857V0H50.9875V9.42857H41.559V15.7143H50.9875V25.1429H57.2733V15.7143H66.7018V9.42857H57.2733Z" fill="#00637A"/>
</svg>
