<svg width="68" height="58" viewBox="0 0 68 58" fill="none" xmlns="http://www.w3.org/2000/svg">
<path d="M30.6562 57.3026L20.9869 48.2297C17.3323 44.781 14.1976 41.7036 11.5825 38.9976C8.9675 36.2917 6.8103 33.7449 5.11094 31.3573C3.41158 28.9697 2.16802 26.6616 1.38026 24.4332C0.592501 22.2048 0.199638 19.8702 0.201668 17.4296C0.201668 12.4421 1.80053 8.28978 4.99826 4.9726C8.19599 1.65541 12.1805 -0.00212028 16.9517 2.03547e-06C19.5911 2.03547e-06 22.1036 0.58364 24.4892 1.75092C26.8748 2.91819 28.9305 4.56299 30.6562 6.68531C32.382 4.56299 34.4376 2.91819 36.8233 1.75092C39.2089 0.58364 41.7214 2.03547e-06 44.3608 2.03547e-06C48.4721 2.03547e-06 51.9236 1.20654 54.7153 3.61962C57.507 6.0327 59.4104 9.0708 60.4255 12.7339H53.9539C53.0403 10.6116 51.6952 9.01986 49.9187 7.9587C48.1422 6.89754 46.2895 6.36696 44.3608 6.36696C41.7721 6.36696 39.5388 7.09704 37.6608 8.5572C35.7827 10.0174 34.0316 11.9402 32.4073 14.3257H28.9051C27.3316 11.9381 25.5419 10.0142 23.5359 8.55401C21.53 7.09386 19.3352 6.36484 16.9517 6.36696C14.0585 6.36696 11.5582 7.41539 9.45071 9.51224C7.34326 11.6091 6.29055 14.2471 6.29258 17.4264C6.29258 19.1773 6.64788 20.9547 7.35849 22.7587C8.06909 24.5627 9.33803 26.6457 11.1653 29.0079C12.9926 31.3679 15.4797 34.1269 18.6267 37.2849C21.7736 40.4429 25.7835 44.2504 30.6562 48.7072C31.9759 47.4869 33.524 46.0809 35.3005 44.4891C37.077 42.8974 38.4983 41.5709 39.5642 40.5098L40.2494 41.2261L41.7356 42.7796L43.2187 44.33L43.9039 45.0462C42.7873 46.1074 41.3661 47.4211 39.6403 48.9874C37.9145 50.5537 36.3918 51.9459 35.0721 53.1641L30.6562 57.3026ZM51.9744 44.5687V35.0183H42.838V28.6513H51.9744V19.1009H58.0653V28.6513H67.2017V35.0183H58.0653V44.5687H51.9744Z" fill="#00637A"/>
</svg>
