<svg width="74" height="64" viewBox="0 0 74 64" fill="none" xmlns="http://www.w3.org/2000/svg">
<path d="M73.7567 48.8999V44.01H68.2708C67.9341 42.4794 67.2851 41.0242 66.3595 39.7239L70.25 36.0809L66.5579 32.6236L62.6674 36.2667C61.2789 35.4 59.7247 34.7923 58.0902 34.4769V29.34H52.8681V34.4769C51.2336 34.7923 49.6795 35.4 48.2909 36.2667L44.4004 32.6236L40.7083 36.0809L44.5988 39.7239C43.6732 41.0242 43.0243 42.4794 42.6875 44.01H37.2017V48.8999H42.6875C43.0243 50.4305 43.6732 51.8857 44.5988 53.186L40.7083 56.829L44.4004 60.2863L48.2909 56.6432C49.6795 57.5099 51.2336 58.1176 52.8681 58.433V63.5699H58.0902V58.433C59.7247 58.1176 61.2789 57.5099 62.6674 56.6432L66.5579 60.2863L70.25 56.829L66.3595 53.186C67.2851 51.8857 67.9341 50.4305 68.2708 48.8999H73.7567ZM55.4792 53.7899C53.9299 53.7899 52.4154 53.3597 51.1273 52.5538C49.8391 51.7478 48.8351 50.6022 48.2422 49.2619C47.6493 47.9216 47.4942 46.4468 47.7965 45.024C48.0987 43.6011 48.8447 42.2942 49.9402 41.2683C51.0357 40.2425 52.4315 39.5439 53.951 39.2609C55.4705 38.9779 57.0455 39.1232 58.4768 39.6783C59.9081 40.2335 61.1315 41.1736 61.9922 42.3799C62.853 43.5861 63.3124 45.0042 63.3124 46.455C63.3103 48.3997 62.4844 50.2643 61.0158 51.6394C59.5472 53.0146 57.556 53.788 55.4792 53.7899Z" fill="#00637A"/>
<path d="M68.5345 0H5.86881C4.48424 0.00129457 3.15677 0.516904 2.17772 1.43367C1.19868 2.35044 0.64805 3.59347 0.646667 4.88998V53.7898C0.64805 55.0863 1.19868 56.3293 2.17772 57.2461C3.15677 58.1628 4.48424 58.6785 5.86881 58.6798H31.9795V53.7898H5.86881V19.5599H68.5345V26.8949H73.7567V4.88998C73.7553 3.59347 73.2047 2.35044 72.2256 1.43367C71.2466 0.516904 69.9191 0.00129457 68.5345 0ZM68.5345 14.6699H5.86881V4.88998H68.5345V14.6699Z" fill="#00637A"/>
<path d="M47.6461 12.2249C49.0882 12.2249 50.2572 11.1303 50.2572 9.77995C50.2572 8.42962 49.0882 7.33496 47.6461 7.33496C46.2041 7.33496 45.035 8.42962 45.035 9.77995C45.035 11.1303 46.2041 12.2249 47.6461 12.2249Z" fill="#00637A"/>
<path d="M55.4791 12.2249C56.9212 12.2249 58.0902 11.1303 58.0902 9.77995C58.0902 8.42962 56.9212 7.33496 55.4791 7.33496C54.0371 7.33496 52.868 8.42962 52.868 9.77995C52.868 11.1303 54.0371 12.2249 55.4791 12.2249Z" fill="#00637A"/>
<path d="M63.3126 12.2249C64.7547 12.2249 65.9237 11.1303 65.9237 9.77995C65.9237 8.42962 64.7547 7.33496 63.3126 7.33496C61.8706 7.33496 60.7015 8.42962 60.7015 9.77995C60.7015 11.1303 61.8706 12.2249 63.3126 12.2249Z" fill="#00637A"/>
</svg>
