<svg width="81" height="70" viewBox="0 0 81 70" fill="none" xmlns="http://www.w3.org/2000/svg">
<path d="M79.7017 32.21C79.7044 28.9826 78.9184 25.8044 77.4134 22.9578C75.9085 20.1113 73.7311 17.6844 71.0749 15.8928C68.4186 14.1012 65.3656 13.0004 62.1871 12.6881C59.0086 12.3758 55.8029 12.8617 52.8549 14.1026C49.9069 15.3436 47.3078 17.3012 45.2885 19.8015C43.2692 22.3018 41.8922 25.2675 41.2797 28.435C40.6673 31.6026 40.8385 34.8739 41.778 37.9585C42.7175 41.0431 44.3963 43.8455 46.6653 46.1167V67.0492C46.6652 67.4203 46.7589 67.7852 46.9376 68.1094C47.1163 68.4336 47.374 68.7063 47.6863 68.9015C47.9986 69.0968 48.355 69.2081 48.7219 69.225C49.0887 69.2419 49.4537 69.1637 49.7822 68.998L60.3108 63.6778L70.8393 68.998C71.1382 69.1485 71.4677 69.2268 71.8017 69.2266C72.2016 69.2272 72.5936 69.1141 72.9328 68.9C73.2453 68.7052 73.5033 68.4329 73.6825 68.109C73.8616 67.785 73.9558 67.4202 73.9562 67.0492V46.1167C75.7773 44.2986 77.223 42.1331 78.2092 39.7458C79.1955 37.3585 79.7028 34.7971 79.7017 32.21ZM45.2289 32.21C45.2289 29.1954 46.1135 26.2485 47.7707 23.742C49.4279 21.2354 51.7833 19.2818 54.5392 18.1282C57.295 16.9745 60.3275 16.6727 63.2531 17.2608C66.1787 17.8489 68.866 19.3006 70.9752 21.4322C73.0844 23.5639 74.5208 26.2798 75.1028 29.2365C75.6847 32.1931 75.386 35.2578 74.2445 38.0429C73.103 40.8281 71.17 43.2086 68.6898 44.8834C66.2096 46.5582 63.2937 47.4522 60.3108 47.4522C56.3108 47.4522 52.4747 45.8463 49.6463 42.9879C46.8179 40.1294 45.2289 36.2525 45.2289 32.21ZM69.6471 63.5253L61.2731 59.2938C60.9743 59.143 60.6448 59.0645 60.3108 59.0645C59.9767 59.0645 59.6473 59.143 59.3484 59.2938L50.9744 63.5253V49.3719C53.8339 50.9645 57.0458 51.7997 60.3108 51.7997C63.5757 51.7997 66.7876 50.9645 69.6471 49.3719V63.5253ZM39.4835 55.4361C39.4835 56.0136 39.2565 56.5675 38.8524 56.9758C38.4484 57.3842 37.9004 57.6136 37.3289 57.6136H5.72893C4.39562 57.6136 3.11691 57.0783 2.17411 56.1255C1.23132 55.1726 0.70166 53.8804 0.70166 52.5329V6.08071C0.70166 4.73322 1.23132 3.44092 2.17411 2.4881C3.11691 1.53529 4.39562 1 5.72893 1H68.9289C70.2623 1 71.541 1.53529 72.4837 2.4881C73.4266 3.44092 73.9562 4.73322 73.9562 6.08071C73.9562 6.6582 73.7292 7.21204 73.3252 7.62039C72.9211 8.02874 72.3731 8.25815 71.8017 8.25815C71.2302 8.25815 70.6822 8.02874 70.2782 7.62039C69.8741 7.21204 69.6471 6.6582 69.6471 6.08071C69.6471 5.88821 69.5714 5.70359 69.4368 5.56748C69.3021 5.43136 69.1194 5.35489 68.9289 5.35489H5.72893C5.53846 5.35489 5.35579 5.43136 5.2211 5.56748C5.08642 5.70359 5.01075 5.88821 5.01075 6.08071V52.5329C5.01075 52.7254 5.08642 52.91 5.2211 53.0461C5.35579 53.1822 5.53846 53.2587 5.72893 53.2587H37.3289C37.9004 53.2587 38.4484 53.4881 38.8524 53.8964C39.2565 54.3048 39.4835 54.8586 39.4835 55.4361ZM33.738 35.1133C33.738 35.6908 33.511 36.2446 33.107 36.653C32.7029 37.0613 32.1549 37.2907 31.5835 37.2907H17.2198C16.6484 37.2907 16.1004 37.0613 15.6964 36.653C15.2923 36.2446 15.0653 35.6908 15.0653 35.1133C15.0653 34.5358 15.2923 33.982 15.6964 33.5736C16.1004 33.1653 16.6484 32.9359 17.2198 32.9359H31.5835C32.1549 32.9359 32.7029 33.1653 33.107 33.5736C33.511 33.982 33.738 34.5358 33.738 35.1133ZM33.738 23.5003C33.738 24.0778 33.511 24.6316 33.107 25.0399C32.7029 25.4483 32.1549 25.6777 31.5835 25.6777H17.2198C16.6484 25.6777 16.1004 25.4483 15.6964 25.0399C15.2923 24.6316 15.0653 24.0778 15.0653 23.5003C15.0653 22.9228 15.2923 22.3689 15.6964 21.9606C16.1004 21.5522 16.6484 21.3228 17.2198 21.3228H31.5835C32.1549 21.3228 32.7029 21.5522 33.107 21.9606C33.511 22.3689 33.738 22.9228 33.738 23.5003Z" fill="#00637A" stroke="#00637A" stroke-linejoin="bevel"/>
</svg>
